<?xml version="1.0" encoding="iso-8859-1"?>
<!-- Uploaded to: SVG Repo, www.svgrepo.com, Generator: SVG Repo Mixer Tools -->
<svg height="800px" width="800px" version="1.1" id="Layer_1" xmlns="http://www.w3.org/2000/svg" xmlns:xlink="http://www.w3.org/1999/xlink" 
	 viewBox="0 0 511.893 511.893" xml:space="preserve">
<path style="fill:#FDC794;" d="M339.809,163.204c0-16.772-14.124-30.897-30.897-30.897c-16.772,0-30.897,14.124-30.897,30.897
	V31.673c0-15.007-9.71-28.248-24.717-30.897c-19.421-4.414-37.076,10.593-37.076,30.014v145.655
	c0-22.069-23.834-46.786-46.786-30.014c-9.71,7.062-15.007,19.421-15.007,30.897v62.676l-17.655,10.593
	c-23.834,9.71-35.31,27.366-35.31,61.793v26.483l0,0c0,79.448,61.793,111.228,61.793,111.228v30.897
	c0,16.772,14.124,30.897,30.897,30.897h154.483c14.124,0,26.483-15.89,26.483-30.897V450.1c28.248-37.959,26.483-40.607,26.483-128
	v-48.552v-26.483c0-0.883,0-0.883,0-1.766v-2.648v-52.966v-2.648l0,0c-1.766-15.89-15.007-28.248-30.897-28.248
	c-16.772,0-30.897,14.124-30.897,30.897V163.204z"/>
<g>
	<path style="fill:#F9A671;" d="M308.912,300.031c-22.069,0-39.724-17.655-39.724-39.724v-97.103
		c0-22.069,17.655-39.724,39.724-39.724s39.724,17.655,39.724,39.724v97.103C348.636,282.376,330.981,300.031,308.912,300.031z
		 M308.912,141.135c-12.359,0-22.069,9.71-22.069,22.069v97.103c0,12.359,9.71,22.069,22.069,22.069
		c12.359,0,22.069-9.71,22.069-22.069v-97.103C330.981,150.845,321.271,141.135,308.912,141.135z"/>
	<path style="fill:#F9A671;" d="M370.705,282.376c-22.069,0-39.724-17.655-39.724-39.724v-52.966
		c0-22.069,17.655-39.724,39.724-39.724s39.724,17.655,39.724,39.724v52.966C410.429,264.721,392.774,282.376,370.705,282.376z
		 M370.705,167.617c-12.359,0-22.069,9.71-22.069,22.069v52.966c0,12.359,9.71,22.069,22.069,22.069s22.069-9.71,22.069-22.069
		v-52.966C392.774,177.328,383.064,167.617,370.705,167.617z"/>
	<path style="fill:#F9A671;" d="M162.374,315.038c-3.531,0-7.062-2.648-8.828-6.179c-0.883-4.414,1.766-9.71,6.179-10.593
		c21.186-5.297,60.91-37.076,76.8-64.441c5.297-9.71,0.883-27.366-7.945-33.545c-7.945-5.297-16.772,2.648-22.952,9.71
		c-12.359,15.89-36.193,33.545-64.441,48.552c-4.414,2.648-9.71,0.883-12.359-3.531c-2.648-4.414-0.883-9.71,3.531-12.359
		c26.483-14.124,47.669-30.014,59.145-44.138c22.069-27.366,41.49-16.772,46.786-13.241c16.772,11.476,22.952,38.841,13.241,56.497
		c-18.538,31.779-62.676,65.324-87.393,72.386C164.14,315.038,163.257,315.038,162.374,315.038z"/>
	<path style="fill:#F9A671;" d="M216.222,198.514c-5.297,0-8.828-3.531-8.828-8.828v-17.655c0-5.297,3.531-8.828,8.828-8.828
		s8.828,3.531,8.828,8.828v17.655C225.05,194.983,221.519,198.514,216.222,198.514z"/>
	<path style="fill:#F9A671;" d="M209.16,467.755c-13.241,0-27.366-3.531-40.607-9.71c-4.414-1.766-6.179-7.062-4.414-11.476
		s7.062-6.179,11.476-4.414c13.241,6.179,32.662,11.476,48.552,5.297c8.828-3.531,15.007-9.71,19.421-18.538
		c1.766-4.414,7.062-6.179,11.476-4.414s6.179,7.062,4.414,11.476c-6.179,13.241-15.89,23.834-29.131,28.248
		C224.167,466.873,216.222,467.755,209.16,467.755z"/>
	<path style="fill:#F9A671;" d="M366.291,458.928h-17.655c-5.297,0-8.828-3.531-8.828-8.828s3.531-8.828,8.828-8.828h17.655
		c5.297,0,8.828,3.531,8.828,8.828S371.588,458.928,366.291,458.928z"/>
	<path style="fill:#F9A671;" d="M216.222,308.859c-5.297,0-8.828-3.531-8.828-8.828v-26.483c0-5.297,3.531-8.828,8.828-8.828
		s8.828,3.531,8.828,8.828v26.483C225.05,305.328,221.519,308.859,216.222,308.859z"/>
</g>
</svg>